<svg width="223" height="50" viewBox="0 0 223 50" fill="none" xmlns="http://www.w3.org/2000/svg">
<path d="M92.9176 11.6562H89.1847C89.1165 11.1733 88.9773 10.7443 88.767 10.3693C88.5568 9.98864 88.2869 9.66477 87.9574 9.39773C87.6278 9.13068 87.2472 8.92614 86.8153 8.78409C86.3892 8.64205 85.9261 8.57102 85.4261 8.57102C84.5227 8.57102 83.7358 8.79545 83.0653 9.24432C82.3949 9.6875 81.875 10.3352 81.5057 11.1875C81.1364 12.0341 80.9517 13.0625 80.9517 14.2727C80.9517 15.517 81.1364 16.5625 81.5057 17.4091C81.8807 18.2557 82.4034 18.8949 83.0739 19.3267C83.7443 19.7585 84.5199 19.9744 85.4006 19.9744C85.8949 19.9744 86.3523 19.9091 86.7727 19.7784C87.1989 19.6477 87.5767 19.4574 87.9062 19.2074C88.2358 18.9517 88.5085 18.642 88.7244 18.2784C88.946 17.9148 89.0994 17.5 89.1847 17.0341L92.9176 17.0511C92.821 17.8523 92.5795 18.625 92.1932 19.3693C91.8125 20.108 91.2983 20.7699 90.6506 21.3551C90.0085 21.9347 89.2415 22.3949 88.3494 22.7358C87.4631 23.071 86.4602 23.2386 85.3409 23.2386C83.7841 23.2386 82.392 22.8864 81.1648 22.1818C79.9432 21.4773 78.9773 20.4574 78.267 19.1222C77.5625 17.7869 77.2102 16.1705 77.2102 14.2727C77.2102 12.3693 77.5682 10.75 78.2841 9.41477C79 8.07955 79.9716 7.0625 81.1989 6.36364C82.4261 5.65909 83.8068 5.30682 85.3409 5.30682C86.3523 5.30682 87.2898 5.44886 88.1534 5.73295C89.0227 6.01705 89.7926 6.43182 90.4631 6.97727C91.1335 7.51704 91.679 8.17898 92.0994 8.96307C92.5256 9.74716 92.7983 10.6449 92.9176 11.6562ZM99.2287 23.2472C98.3935 23.2472 97.6491 23.1023 96.9957 22.8125C96.3423 22.517 95.8253 22.0824 95.4446 21.5085C95.0696 20.929 94.8821 20.2074 94.8821 19.3438C94.8821 18.6165 95.0156 18.0057 95.2827 17.5114C95.5497 17.017 95.9134 16.6193 96.3736 16.3182C96.8338 16.017 97.3565 15.7898 97.9418 15.6364C98.5327 15.483 99.152 15.375 99.7997 15.3125C100.561 15.233 101.175 15.1591 101.641 15.0909C102.107 15.017 102.445 14.9091 102.655 14.767C102.865 14.625 102.97 14.4148 102.97 14.1364V14.0852C102.97 13.5455 102.8 13.1278 102.459 12.8324C102.124 12.5369 101.646 12.3892 101.027 12.3892C100.374 12.3892 99.8537 12.5341 99.4673 12.8239C99.081 13.108 98.8253 13.4659 98.7003 13.8977L95.3423 13.625C95.5128 12.8295 95.848 12.142 96.348 11.5625C96.848 10.9773 97.4929 10.5284 98.2827 10.2159C99.0781 9.89773 99.9986 9.73864 101.044 9.73864C101.771 9.73864 102.467 9.82386 103.132 9.99432C103.803 10.1648 104.396 10.429 104.913 10.7869C105.436 11.1449 105.848 11.6051 106.149 12.1676C106.45 12.7244 106.601 13.392 106.601 14.1705V23H103.158V21.1847H103.055C102.845 21.5938 102.564 21.9545 102.212 22.267C101.859 22.5739 101.436 22.8153 100.942 22.9915C100.447 23.1619 99.8764 23.2472 99.2287 23.2472ZM100.268 20.7415C100.803 20.7415 101.274 20.6364 101.683 20.4261C102.092 20.2102 102.413 19.9205 102.646 19.5568C102.879 19.1932 102.996 18.7812 102.996 18.321V16.9318C102.882 17.0057 102.726 17.0739 102.527 17.1364C102.334 17.1932 102.115 17.2472 101.871 17.2983C101.626 17.3437 101.382 17.3864 101.138 17.4261C100.893 17.4602 100.672 17.4915 100.473 17.5199C100.047 17.5824 99.6747 17.6818 99.3565 17.8182C99.0384 17.9545 98.7912 18.1392 98.6151 18.3722C98.4389 18.5994 98.3509 18.8835 98.3509 19.2244C98.3509 19.7188 98.5298 20.0966 98.8878 20.358C99.2514 20.6136 99.7116 20.7415 100.268 20.7415ZM109.418 23V9.90909H112.878V12.2188H113.031C113.304 11.4517 113.759 10.8466 114.395 10.4034C115.031 9.96023 115.793 9.73864 116.679 9.73864C117.577 9.73864 118.341 9.96307 118.972 10.4119C119.602 10.8551 120.023 11.4574 120.233 12.2188H120.369C120.636 11.4688 121.119 10.8693 121.818 10.4205C122.523 9.96591 123.355 9.73864 124.315 9.73864C125.537 9.73864 126.528 10.1278 127.29 10.9062C128.057 11.679 128.44 12.7756 128.44 14.196V23H124.818V14.9119C124.818 14.1847 124.625 13.6392 124.239 13.2756C123.852 12.9119 123.369 12.7301 122.79 12.7301C122.131 12.7301 121.616 12.9403 121.247 13.3608C120.878 13.7756 120.693 14.3239 120.693 15.0057V23H117.173V14.8352C117.173 14.1932 116.989 13.6818 116.619 13.3011C116.256 12.9205 115.776 12.7301 115.179 12.7301C114.776 12.7301 114.412 12.8324 114.088 13.0369C113.77 13.2358 113.517 13.517 113.33 13.8807C113.142 14.2386 113.048 14.6591 113.048 15.142V23H109.418ZM131.308 27.9091V9.90909H134.888V12.108H135.05C135.209 11.7557 135.439 11.3977 135.74 11.0341C136.047 10.6648 136.445 10.358 136.933 10.1136C137.428 9.86364 138.041 9.73864 138.774 9.73864C139.729 9.73864 140.609 9.98864 141.416 10.4886C142.223 10.983 142.868 11.7301 143.351 12.7301C143.834 13.7244 144.075 14.9716 144.075 16.4716C144.075 17.9318 143.839 19.1648 143.368 20.1705C142.902 21.1705 142.266 21.929 141.459 22.446C140.658 22.9574 139.76 23.2131 138.766 23.2131C138.061 23.2131 137.462 23.0966 136.967 22.8636C136.479 22.6307 136.078 22.3381 135.766 21.9858C135.453 21.6278 135.214 21.267 135.05 20.9034H134.939V27.9091H131.308ZM134.862 16.4545C134.862 17.233 134.97 17.9119 135.186 18.4915C135.402 19.071 135.714 19.5227 136.124 19.8466C136.533 20.1648 137.03 20.3239 137.615 20.3239C138.206 20.3239 138.706 20.1619 139.115 19.8381C139.524 19.5085 139.834 19.054 140.044 18.4744C140.26 17.8892 140.368 17.2159 140.368 16.4545C140.368 15.6989 140.263 15.0341 140.053 14.4602C139.842 13.8864 139.533 13.4375 139.124 13.1136C138.714 12.7898 138.212 12.6278 137.615 12.6278C137.024 12.6278 136.524 12.7841 136.115 13.0966C135.712 13.4091 135.402 13.8523 135.186 14.4261C134.97 15 134.862 15.6761 134.862 16.4545ZM154.891 17.4261V9.90909H158.521V23H155.036V20.6222H154.899C154.604 21.3892 154.112 22.0057 153.425 22.4716C152.743 22.9375 151.911 23.1705 150.928 23.1705C150.053 23.1705 149.283 22.9716 148.618 22.5739C147.953 22.1761 147.433 21.6108 147.058 20.8778C146.689 20.1449 146.501 19.267 146.496 18.2443V9.90909H150.126V17.5966C150.132 18.3693 150.339 18.9801 150.749 19.429C151.158 19.8778 151.706 20.1023 152.393 20.1023C152.831 20.1023 153.24 20.0028 153.621 19.804C154.001 19.5994 154.308 19.2983 154.541 18.9006C154.78 18.5028 154.896 18.0114 154.891 17.4261ZM172.317 13.642L168.994 13.8466C168.937 13.5625 168.815 13.3068 168.627 13.0795C168.44 12.8466 168.192 12.6619 167.886 12.5256C167.585 12.3835 167.224 12.3125 166.803 12.3125C166.241 12.3125 165.766 12.4318 165.38 12.6705C164.994 12.9034 164.8 13.2159 164.8 13.608C164.8 13.9205 164.925 14.1847 165.175 14.4006C165.425 14.6165 165.854 14.7898 166.462 14.9205L168.832 15.3977C170.104 15.6591 171.053 16.0795 171.678 16.6591C172.303 17.2386 172.616 18 172.616 18.9432C172.616 19.8011 172.363 20.554 171.857 21.2017C171.357 21.8494 170.67 22.3551 169.795 22.7188C168.925 23.0767 167.923 23.2557 166.786 23.2557C165.053 23.2557 163.673 22.8949 162.644 22.1733C161.621 21.446 161.022 20.4574 160.846 19.2074L164.417 19.0199C164.525 19.5483 164.786 19.9517 165.201 20.2301C165.616 20.5028 166.147 20.6392 166.795 20.6392C167.431 20.6392 167.942 20.517 168.329 20.2727C168.721 20.0227 168.92 19.7017 168.925 19.3097C168.92 18.9801 168.781 18.7102 168.508 18.5C168.235 18.2841 167.815 18.1193 167.246 18.0057L164.979 17.554C163.701 17.2983 162.749 16.8551 162.124 16.2244C161.505 15.5937 161.195 14.7898 161.195 13.8125C161.195 12.9716 161.423 12.2472 161.877 11.6392C162.337 11.0312 162.982 10.5625 163.812 10.233C164.647 9.90341 165.624 9.73864 166.744 9.73864C168.397 9.73864 169.698 10.0881 170.647 10.7869C171.602 11.4858 172.158 12.4375 172.317 13.642Z" fill="black"/>
<rect x="9" width="60" height="32" rx="16" fill="#E5A924"/>
<rect y="15" width="60" height="32" rx="16" fill="#0055A2"/>
<path d="M77.517 27.5455H82.0682L86.875 39.2727H87.0795L91.8864 27.5455H96.4375V45H92.858V33.6392H92.7131L88.196 44.9148H85.7585L81.2415 33.5966H81.0966V45H77.517V27.5455ZM103.143 45.2472C102.308 45.2472 101.563 45.1023 100.91 44.8125C100.256 44.517 99.7393 44.0824 99.3587 43.5085C98.9837 42.929 98.7962 42.2074 98.7962 41.3438C98.7962 40.6165 98.9297 40.0057 99.1967 39.5114C99.4638 39.017 99.8274 38.6193 100.288 38.3182C100.748 38.017 101.271 37.7898 101.856 37.6364C102.447 37.483 103.066 37.375 103.714 37.3125C104.475 37.233 105.089 37.1591 105.555 37.0909C106.021 37.017 106.359 36.9091 106.569 36.767C106.779 36.625 106.884 36.4148 106.884 36.1364V36.0852C106.884 35.5455 106.714 35.1278 106.373 34.8324C106.038 34.5369 105.56 34.3892 104.941 34.3892C104.288 34.3892 103.768 34.5341 103.381 34.8239C102.995 35.108 102.739 35.4659 102.614 35.8977L99.2564 35.625C99.4268 34.8295 99.7621 34.142 100.262 33.5625C100.762 32.9773 101.407 32.5284 102.197 32.2159C102.992 31.8977 103.913 31.7386 104.958 31.7386C105.685 31.7386 106.381 31.8239 107.046 31.9943C107.717 32.1648 108.31 32.429 108.827 32.7869C109.35 33.1449 109.762 33.6051 110.063 34.1676C110.364 34.7244 110.515 35.392 110.515 36.1705V45H107.072V43.1847H106.969C106.759 43.5938 106.478 43.9545 106.126 44.267C105.773 44.5739 105.35 44.8153 104.856 44.9915C104.362 45.1619 103.79 45.2472 103.143 45.2472ZM104.183 42.7415C104.717 42.7415 105.188 42.6364 105.597 42.4261C106.006 42.2102 106.327 41.9205 106.56 41.5568C106.793 41.1932 106.91 40.7812 106.91 40.321V38.9318C106.796 39.0057 106.64 39.0739 106.441 39.1364C106.248 39.1932 106.029 39.2472 105.785 39.2983C105.54 39.3437 105.296 39.3864 105.052 39.4261C104.808 39.4602 104.586 39.4915 104.387 39.5199C103.961 39.5824 103.589 39.6818 103.271 39.8182C102.952 39.9545 102.705 40.1392 102.529 40.3722C102.353 40.5994 102.265 40.8835 102.265 41.2244C102.265 41.7188 102.444 42.0966 102.802 42.358C103.165 42.6136 103.626 42.7415 104.183 42.7415ZM113.332 45V31.9091H116.852V34.1932H116.988C117.227 33.3807 117.627 32.767 118.19 32.3523C118.752 31.9318 119.4 31.7216 120.133 31.7216C120.315 31.7216 120.511 31.733 120.721 31.7557C120.931 31.7784 121.116 31.8097 121.275 31.8494V35.071C121.104 35.0199 120.869 34.9744 120.567 34.9347C120.266 34.8949 119.991 34.875 119.741 34.875C119.207 34.875 118.729 34.9915 118.309 35.2244C117.894 35.4517 117.565 35.7699 117.32 36.179C117.082 36.5881 116.962 37.0597 116.962 37.5938V45H113.332ZM126.442 41.233L126.45 36.8778H126.979L131.172 31.9091H135.339L129.706 38.4886H128.845L126.442 41.233ZM123.152 45V27.5455H126.783V45H123.152ZM131.334 45L127.482 39.2983L129.902 36.733L135.587 45H131.334ZM142.548 45.2557C141.201 45.2557 140.042 44.983 139.07 44.4375C138.104 43.8864 137.36 43.108 136.837 42.1023C136.315 41.0909 136.053 39.8949 136.053 38.5142C136.053 37.1676 136.315 35.9858 136.837 34.9688C137.36 33.9517 138.096 33.1591 139.045 32.5909C139.999 32.0227 141.119 31.7386 142.403 31.7386C143.266 31.7386 144.07 31.8778 144.815 32.1562C145.565 32.429 146.218 32.8409 146.775 33.392C147.337 33.9432 147.775 34.6364 148.087 35.4716C148.4 36.3011 148.556 37.2727 148.556 38.3864V39.3835H137.502V37.1335H145.138C145.138 36.6108 145.025 36.1477 144.798 35.7443C144.57 35.3409 144.255 35.0256 143.852 34.7983C143.454 34.5653 142.991 34.4489 142.462 34.4489C141.911 34.4489 141.423 34.5767 140.996 34.8324C140.576 35.0824 140.246 35.4205 140.008 35.8466C139.769 36.267 139.647 36.7358 139.641 37.2528V39.392C139.641 40.0398 139.761 40.5994 139.999 41.071C140.244 41.5426 140.587 41.9062 141.031 42.1619C141.474 42.4176 141.999 42.5455 142.607 42.5455C143.011 42.5455 143.38 42.4886 143.715 42.375C144.05 42.2614 144.337 42.0909 144.576 41.8636C144.815 41.6364 144.996 41.358 145.121 41.0284L148.479 41.25C148.309 42.0568 147.96 42.7614 147.431 43.3636C146.908 43.9602 146.232 44.4261 145.403 44.7614C144.579 45.0909 143.627 45.2557 142.548 45.2557ZM157.888 31.9091V34.6364H150.005V31.9091H157.888ZM151.795 28.7727H155.425V40.9773C155.425 41.3125 155.477 41.5739 155.579 41.7614C155.681 41.9432 155.823 42.071 156.005 42.1449C156.192 42.2187 156.408 42.2557 156.653 42.2557C156.823 42.2557 156.994 42.2415 157.164 42.2131C157.335 42.179 157.465 42.1534 157.556 42.1364L158.127 44.8381C157.945 44.8949 157.69 44.9602 157.36 45.0341C157.031 45.1136 156.63 45.1619 156.158 45.179C155.283 45.2131 154.516 45.0966 153.857 44.8295C153.204 44.5625 152.695 44.1477 152.332 43.5852C151.968 43.0227 151.789 42.3125 151.795 41.4545V28.7727ZM160.254 49.9091V31.9091H163.833V34.108H163.995C164.154 33.7557 164.384 33.3977 164.685 33.0341C164.992 32.6648 165.39 32.358 165.879 32.1136C166.373 31.8636 166.987 31.7386 167.719 31.7386C168.674 31.7386 169.555 31.9886 170.362 32.4886C171.168 32.983 171.813 33.7301 172.296 34.7301C172.779 35.7244 173.021 36.9716 173.021 38.4716C173.021 39.9318 172.785 41.1648 172.313 42.1705C171.847 43.1705 171.211 43.929 170.404 44.446C169.603 44.9574 168.705 45.2131 167.711 45.2131C167.006 45.2131 166.407 45.0966 165.913 44.8636C165.424 44.6307 165.023 44.3381 164.711 43.9858C164.398 43.6278 164.16 43.267 163.995 42.9034H163.884V49.9091H160.254ZM163.808 38.4545C163.808 39.233 163.915 39.9119 164.131 40.4915C164.347 41.071 164.66 41.5227 165.069 41.8466C165.478 42.1648 165.975 42.3239 166.56 42.3239C167.151 42.3239 167.651 42.1619 168.06 41.8381C168.469 41.5085 168.779 41.054 168.989 40.4744C169.205 39.8892 169.313 39.2159 169.313 38.4545C169.313 37.6989 169.208 37.0341 168.998 36.4602C168.788 35.8864 168.478 35.4375 168.069 35.1136C167.66 34.7898 167.157 34.6278 166.56 34.6278C165.969 34.6278 165.469 34.7841 165.06 35.0966C164.657 35.4091 164.347 35.8523 164.131 36.4261C163.915 37 163.808 37.6761 163.808 38.4545ZM179.072 27.5455V45H175.441V27.5455H179.072ZM185.713 45.2472C184.878 45.2472 184.134 45.1023 183.48 44.8125C182.827 44.517 182.31 44.0824 181.929 43.5085C181.554 42.929 181.366 42.2074 181.366 41.3438C181.366 40.6165 181.5 40.0057 181.767 39.5114C182.034 39.017 182.398 38.6193 182.858 38.3182C183.318 38.017 183.841 37.7898 184.426 37.6364C185.017 37.483 185.636 37.375 186.284 37.3125C187.045 37.233 187.659 37.1591 188.125 37.0909C188.591 37.017 188.929 36.9091 189.139 36.767C189.349 36.625 189.455 36.4148 189.455 36.1364V36.0852C189.455 35.5455 189.284 35.1278 188.943 34.8324C188.608 34.5369 188.131 34.3892 187.511 34.3892C186.858 34.3892 186.338 34.5341 185.952 34.8239C185.565 35.108 185.31 35.4659 185.185 35.8977L181.827 35.625C181.997 34.8295 182.332 34.142 182.832 33.5625C183.332 32.9773 183.977 32.5284 184.767 32.2159C185.563 31.8977 186.483 31.7386 187.528 31.7386C188.256 31.7386 188.952 31.8239 189.616 31.9943C190.287 32.1648 190.881 32.429 191.398 32.7869C191.92 33.1449 192.332 33.6051 192.634 34.1676C192.935 34.7244 193.085 35.392 193.085 36.1705V45H189.642V43.1847H189.54C189.33 43.5938 189.048 43.9545 188.696 44.267C188.344 44.5739 187.92 44.8153 187.426 44.9915C186.932 45.1619 186.361 45.2472 185.713 45.2472ZM186.753 42.7415C187.287 42.7415 187.759 42.6364 188.168 42.4261C188.577 42.2102 188.898 41.9205 189.131 41.5568C189.364 41.1932 189.48 40.7812 189.48 40.321V38.9318C189.366 39.0057 189.21 39.0739 189.011 39.1364C188.818 39.1932 188.599 39.2472 188.355 39.2983C188.111 39.3437 187.866 39.3864 187.622 39.4261C187.378 39.4602 187.156 39.4915 186.957 39.5199C186.531 39.5824 186.159 39.6818 185.841 39.8182C185.523 39.9545 185.276 40.1392 185.099 40.3722C184.923 40.5994 184.835 40.8835 184.835 41.2244C184.835 41.7188 185.014 42.0966 185.372 42.358C185.736 42.6136 186.196 42.7415 186.753 42.7415ZM201.817 45.2557C200.476 45.2557 199.322 44.9716 198.357 44.4034C197.396 43.8295 196.658 43.0341 196.141 42.017C195.629 41 195.374 39.8295 195.374 38.5057C195.374 37.1648 195.632 35.9886 196.149 34.9773C196.672 33.9602 197.413 33.1676 198.374 32.5994C199.334 32.0256 200.476 31.7386 201.8 31.7386C202.942 31.7386 203.942 31.946 204.8 32.3608C205.658 32.7756 206.337 33.358 206.837 34.108C207.337 34.858 207.612 35.7386 207.663 36.75H204.237C204.141 36.0966 203.885 35.571 203.47 35.1733C203.061 34.7699 202.524 34.5682 201.859 34.5682C201.297 34.5682 200.805 34.7216 200.385 35.0284C199.97 35.3295 199.646 35.7699 199.413 36.3494C199.18 36.929 199.064 37.6307 199.064 38.4545C199.064 39.2898 199.178 40 199.405 40.5852C199.638 41.1705 199.964 41.6165 200.385 41.9233C200.805 42.2301 201.297 42.3835 201.859 42.3835C202.274 42.3835 202.646 42.2983 202.976 42.1278C203.311 41.9574 203.587 41.7102 203.803 41.3864C204.024 41.0568 204.169 40.6619 204.237 40.2017H207.663C207.607 41.2017 207.334 42.0824 206.845 42.8438C206.362 43.5994 205.695 44.1903 204.842 44.6165C203.99 45.0426 202.982 45.2557 201.817 45.2557ZM215.954 45.2557C214.607 45.2557 213.448 44.983 212.477 44.4375C211.511 43.8864 210.766 43.108 210.244 42.1023C209.721 41.0909 209.46 39.8949 209.46 38.5142C209.46 37.1676 209.721 35.9858 210.244 34.9688C210.766 33.9517 211.502 33.1591 212.451 32.5909C213.406 32.0227 214.525 31.7386 215.809 31.7386C216.673 31.7386 217.477 31.8778 218.221 32.1562C218.971 32.429 219.624 32.8409 220.181 33.392C220.744 33.9432 221.181 34.6364 221.494 35.4716C221.806 36.3011 221.962 37.2727 221.962 38.3864V39.3835H210.908V37.1335H218.545C218.545 36.6108 218.431 36.1477 218.204 35.7443C217.977 35.3409 217.661 35.0256 217.258 34.7983C216.86 34.5653 216.397 34.4489 215.869 34.4489C215.317 34.4489 214.829 34.5767 214.403 34.8324C213.982 35.0824 213.653 35.4205 213.414 35.8466C213.175 36.267 213.053 36.7358 213.048 37.2528V39.392C213.048 40.0398 213.167 40.5994 213.406 41.071C213.65 41.5426 213.994 41.9062 214.437 42.1619C214.88 42.4176 215.406 42.5455 216.013 42.5455C216.417 42.5455 216.786 42.4886 217.121 42.375C217.457 42.2614 217.744 42.0909 217.982 41.8636C218.221 41.6364 218.403 41.358 218.528 41.0284L221.886 41.25C221.715 42.0568 221.366 42.7614 220.837 43.3636C220.315 43.9602 219.638 44.4261 218.809 44.7614C217.985 45.0909 217.033 45.2557 215.954 45.2557Z" fill="black"/>
</svg>
