<svg width="38" height="40" viewBox="0 0 38 40" fill="none" xmlns="http://www.w3.org/2000/svg">
    <rect y="1" width="38" height="38" rx="8" fill="#0055A2"/>
    <g clip-path="url(#clip0_39_2064)">
        <path d="M20.9375 10.375C20.9375 9.61445 20.2951 9 19.5 9C18.7049 9 18.0625 9.61445 18.0625 10.375V18.625H9.4375C8.64238 18.625 8 19.2395 8 20C8 20.7605 8.64238 21.375 9.4375 21.375H18.0625V29.625C18.0625 30.3855 18.7049 31 19.5 31C20.2951 31 20.9375 30.3855 20.9375 29.625V21.375H29.5625C30.3576 21.375 31 20.7605 31 20C31 19.2395 30.3576 18.625 29.5625 18.625H20.9375V10.375Z" fill="white"/>
    </g>
    <defs>
        <clipPath id="clip0_39_2064">
            <rect width="23" height="22" fill="white" transform="translate(8 9)"/>
        </clipPath>
    </defs>
</svg>
