<svg width="38" height="37" viewBox="0 0 38 37" fill="none" xmlns="http://www.w3.org/2000/svg">
    <path d="M35.0016 1.56782C33.3762 -0.0147949 30.7488 -0.0147949 29.1234 1.56782L26.8895 3.73579L34.1555 10.8106L36.3895 8.6354C38.0148 7.05278 38.0148 4.49458 36.3895 2.91196L35.0016 1.56782ZM12.7953 17.4663C12.3426 17.9071 11.9938 18.4491 11.7934 19.0489L9.59649 25.4661C9.38125 26.0875 9.55195 26.7741 10.027 27.2438C10.502 27.7135 11.207 27.8725 11.8527 27.6629L18.4434 25.5239C19.052 25.3288 19.6086 24.9891 20.0688 24.5483L32.4855 12.451L25.2121 5.36899L12.7953 17.4663ZM7.125 4.62466C3.19141 4.62466 0 7.73208 0 11.5622V30.0622C0 33.8922 3.19141 36.9997 7.125 36.9997H26.125C30.0586 36.9997 33.25 33.8922 33.25 30.0622V23.1247C33.25 21.8456 32.1887 20.8122 30.875 20.8122C29.5613 20.8122 28.5 21.8456 28.5 23.1247V30.0622C28.5 31.3413 27.4387 32.3747 26.125 32.3747H7.125C5.81133 32.3747 4.75 31.3413 4.75 30.0622V11.5622C4.75 10.2831 5.81133 9.24966 7.125 9.24966H14.25C15.5637 9.24966 16.625 8.21626 16.625 6.93716C16.625 5.65806 15.5637 4.62466 14.25 4.62466H7.125Z" fill="black"/>
</svg>
