<svg width="38" height="38" viewBox="0 0 38 38" fill="none" xmlns="http://www.w3.org/2000/svg">
    <path d="M8.73555 4.75L5.88555 11.875H9.22539C10.1234 11.875 10.9473 12.3797 11.348 13.1887L12.4094 15.3113C12.8102 16.1129 13.634 16.625 14.532 16.625H23.468C24.366 16.625 25.1898 16.1203 25.5906 15.3113L26.652 13.1887C27.0527 12.3871 27.8766 11.875 28.7746 11.875H32.1145L29.2645 4.75H8.73555ZM4.47539 2.6125C5.10625 1.03164 6.63516 0 8.32734 0H29.6727C31.3723 0 32.9012 1.03164 33.532 2.6125L37.7031 13.0477C37.8961 13.5375 38 14.0645 38 14.5914V19.5938C38 21.8871 36.1371 23.75 33.8438 23.75H4.15625C1.86289 23.75 0 21.8871 0 19.5938V14.5914C0 14.0645 0.103906 13.5375 0.296875 13.0477L4.47539 2.6125ZM3.5625 26.125H9.21797C10.116 26.125 10.9398 26.6297 11.3406 27.4387L12.402 29.5613C12.8027 30.3629 13.6266 30.875 14.5246 30.875H23.4605C24.3586 30.875 25.1824 30.3703 25.5832 29.5613L26.6445 27.4387C27.0453 26.6371 27.8691 26.125 28.7672 26.125H34.4227C36.3895 26.125 37.9852 27.7207 37.9852 29.6875V34.4375C37.9852 36.4043 36.3895 38 34.4227 38H3.5625C1.5957 38 0 36.4043 0 34.4375V29.6875C0 27.7207 1.5957 26.125 3.5625 26.125Z" fill="#0055A2"/>
</svg>
