<svg width="38" height="38" viewBox="0 0 38 38" fill="none" xmlns="http://www.w3.org/2000/svg">
    <g clip-path="url(#clip0_39_2072)">
        <path d="M19 0C17.6863 0 16.625 1.06133 16.625 2.375V3.8C11.207 4.89844 7.125 9.69297 7.125 15.4375V16.8328C7.125 20.3211 5.84102 23.6906 3.52539 26.3031L2.97617 26.9191C2.35273 27.6168 2.2043 28.6187 2.58281 29.4723C2.96133 30.3258 3.81484 30.875 4.75 30.875H33.25C34.1852 30.875 35.0312 30.3258 35.4172 29.4723C35.8031 28.6187 35.6473 27.6168 35.0238 26.9191L34.4746 26.3031C32.159 23.6906 30.875 20.3285 30.875 16.8328V15.4375C30.875 9.69297 26.793 4.89844 21.375 3.8V2.375C21.375 1.06133 20.3137 0 19 0ZM22.3621 36.6121C23.2527 35.7215 23.75 34.5117 23.75 33.25H19H14.25C14.25 34.5117 14.7473 35.7215 15.6379 36.6121C16.5285 37.5027 17.7383 38 19 38C20.2617 38 21.4715 37.5027 22.3621 36.6121ZM8.41641 1.14297C7.74102 0.430469 6.61289 0.400781 5.90039 1.08359C2.26367 4.54219 0 9.4332 0 14.8438C0 15.8309 0.794141 16.625 1.78125 16.625C2.76836 16.625 3.5625 15.8309 3.5625 14.8438C3.5625 10.4426 5.40312 6.4793 8.35703 3.66641C9.06953 2.99102 9.09922 1.86289 8.41641 1.15039V1.14297ZM29.643 3.66641C32.5969 6.4793 34.4375 10.4426 34.4375 14.8438C34.4375 15.8309 35.2316 16.625 36.2188 16.625C37.2059 16.625 38 15.8309 38 14.8438C38 9.4332 35.7363 4.54219 32.107 1.08359C31.3945 0.408203 30.2664 0.430469 29.591 1.14297C28.9156 1.85547 28.9379 2.98359 29.6504 3.65898L29.643 3.66641Z" fill="#0055A2"/>
    </g>
    <defs>
        <clipPath id="clip0_39_2072">
            <rect width="38" height="38" fill="white"/>
        </clipPath>
    </defs>
</svg>
